HIERARCHY
ROOT Hips
{
	OFFSET -21.947001 39.810204 44.525997
	CHANNELS 6 Xposition Yposition Zposition Zrotation Xrotation Yrotation
	JOINT Chest
	{
		OFFSET -0.201599 0.334099 6.453201
		CHANNELS 6 Xposition Yposition Zposition Zrotation Xrotation Yrotation
		JOINT Chest2
		{
			OFFSET 0.000000 0.000000 3.568001
			CHANNELS 6 Xposition Yposition Zposition Zrotation Xrotation Yrotation
			JOINT Neck
			{
				OFFSET 0.000000 0.000000 8.296402
				CHANNELS 6 Xposition Yposition Zposition Zrotation Xrotation Yrotation
				JOINT Head
				{
					OFFSET 0.000000 0.000000 2.173901
					CHANNELS 6 Xposition Yposition Zposition Zrotation Xrotation Yrotation
					End Site
					{
						OFFSET 0.000000 0.000000 7.891998
					}
				}
			}
			JOINT LeftCollar
			{
				OFFSET 1.927601 0.221401 6.049000
				CHANNELS 6 Xposition Yposition Zposition Zrotation Xrotation Yrotation
				JOINT LeftShoulder
				{
					OFFSET 4.959700 0.000000 0.000000
					CHANNELS 6 Xposition Yposition Zposition Zrotation Xrotation Yrotation
					JOINT LeftElbow
					{
						OFFSET 0.000000 0.000000 -8.654202
						CHANNELS 6 Xposition Yposition Zposition Zrotation Xrotation Yrotation
						JOINT LeftWrist
						{
							OFFSET 0.000000 0.000000 -13.864101
							CHANNELS 6 Xposition Yposition Zposition Zrotation Xrotation Yrotation
							End Site
							{
								OFFSET 0.000000 0.000000 -2.173901
							}
						}
					}
				}
			}
			JOINT RightCollar
			{
				OFFSET -3.155701 -0.764999 6.687801
				CHANNELS 6 Xposition Yposition Zposition Zrotation Xrotation Yrotation
				JOINT RightShoulder
				{
					OFFSET -3.592899 0.000000 0.000000
					CHANNELS 6 Xposition Yposition Zposition Zrotation Xrotation Yrotation
					JOINT RightElbow
					{
						OFFSET 0.000000 0.000000 -10.352398
						CHANNELS 6 Xposition Yposition Zposition Zrotation Xrotation Yrotation
						JOINT RightWrist
						{
							OFFSET 0.000000 0.000000 -12.750301
							CHANNELS 6 Xposition Yposition Zposition Zrotation Xrotation Yrotation
							End Site
							{
								OFFSET 0.000000 0.000000 -2.173901
							}
						}
					}
				}
			}
		}
	}
	JOINT LeftHip
	{
		OFFSET 2.460600 -0.518101 -2.735500
		CHANNELS 6 Xposition Yposition Zposition Zrotation Xrotation Yrotation
		JOINT LeftKnee
		{
			OFFSET 0.000000 -0.000004 -17.005899
			CHANNELS 6 Xposition Yposition Zposition Zrotation Xrotation Yrotation
			JOINT LeftAnkle
			{
				OFFSET 0.000000 0.000000 -19.194401
				CHANNELS 6 Xposition Yposition Zposition Zrotation Xrotation Yrotation
				End Site
				{
					OFFSET 0.000000 -8.134600 0.000000
				}
			}
		}
	}
	JOINT RightHip
	{
		OFFSET -3.115499 -0.679600 -2.320301
		CHANNELS 6 Xposition Yposition Zposition Zrotation Xrotation Yrotation
		JOINT RightKnee
		{
			OFFSET 0.000000 -0.000004 -17.680401
			CHANNELS 6 Xposition Yposition Zposition Zrotation Xrotation Yrotation
			JOINT RightAnkle
			{
				OFFSET 0.000000 0.000000 -16.993797
				CHANNELS 6 Xposition Yposition Zposition Zrotation Xrotation Yrotation
				End Site
				{
					OFFSET 0.000000 -8.842300 0.000000
				}
			}
		}
	}
}
MOTION
Frames: 7
Frame Time: 0.041667
-20.130001 35.824600 40.483494 -65.610517 14.892217 -7.837108 -0.201601 0.334098 6.453202 -22.169440 -3.411207 21.660652 0.000005 0.000001 3.567996 2.572125 -7.051048 -0.550281 0.000001 0.000001 8.296390 63.111494 -17.800836 2.825480 -0.000003 0.000001 2.173899 5.205203 -0.039930 8.930070 1.927598 0.221405 6.048989 -21.353669 0.043021 2.678147 4.959703 0.000004 0.000000 -56.689402 -23.813815 -87.887432 -0.000004 0.000001 -8.654202 39.749085 -20.041274 15.423515 0.000004 -0.000009 -13.864102 59.964048 -19.953759 3.834112 -3.155706 -0.765003 6.687792 30.097813 0.331942 -0.651134 -3.592900 0.000004 0.000003 10.306171 1.768856 144.953430 0.000001 0.000001 -10.352382 -62.089206 -141.154520 -32.164549 0.000000 -0.000005 -12.750296 12.634037 -3.434903 -21.965171 2.460596 -0.518106 -2.735497 24.596573 -29.211374 15.765395 0.000005 0.000005 -17.005894 -61.613702 24.645249 36.561217 -0.000006 -0.000002 -19.194399 43.501895 8.626388 34.588221 -3.115497 -0.679604 -2.320298 -56.453078 -48.984266 -31.539795 -0.000007 0.000003 -17.680397 70.535930 -2.322163 -116.026377 -0.000001 0.000001 -16.993790 -53.347794 29.859347 -147.775132
-20.142899 35.825806 40.490791 -65.649545 14.932402 -7.883030 -0.201598 0.334104 6.453199 -22.170605 -3.514652 21.705665 0.000004 0.000001 3.568010 2.615547 -7.034188 -0.543873 0.000002 -0.000003 8.296396 63.104391 -17.820336 2.837676 0.000003 -0.000001 2.173901 5.198108 -0.019914 8.948969 1.927597 0.221404 6.049001 -21.263038 0.033953 2.654036 4.959696 -0.000002 0.000005 -56.817332 -23.751489 -87.922812 0.000002 0.000004 -8.654198 39.508434 -20.149891 15.244765 0.000000 0.000000 -13.864100 60.254030 -19.815682 3.861431 -3.155705 -0.764999 6.687801 29.979186 0.219379 -0.583934 -3.592903 -0.000001 0.000006 10.344357 1.953514 144.870921 -0.000001 -0.000006 -10.352385 -62.419992 -141.167648 -32.293814 0.000004 0.000000 -12.750314 12.601227 -3.456247 -21.998016 2.460598 -0.518094 -2.735505 24.605888 -29.176512 15.801366 -0.000001 0.000001 -17.005894 -61.587385 24.574715 36.496627 -0.000005 0.000002 -19.194401 43.596930 8.754358 33.963747 -3.115496 -0.679600 -2.320301 -56.252581 -49.054910 -31.413679 -0.000004 0.000007 -17.680395 70.475784 -2.461706 -116.049873 0.000008 -0.000001 -16.993784 -53.477543 29.871283 -147.743207
-20.150099 35.826500 40.496292 -65.676913 14.973129 -7.941066 -0.201604 0.334099 6.453198 -22.184649 -3.619500 21.752838 0.000001 0.000001 3.568004 2.657578 -7.029243 -0.540081 0.000006 -0.000003 8.296392 63.122628 -17.832174 2.836746 0.000001 -0.000000 2.173907 5.177314 -0.006615 8.984944 1.927605 0.221405 6.048999 -21.226230 0.049826 2.659284 4.959707 -0.000001 0.000002 -56.827966 -23.693349 -88.015682 -0.000005 0.000006 -8.654203 39.134207 -20.272136 15.129651 0.000003 -0.000009 -13.864096 60.951058 -19.824025 4.052005 -3.155705 -0.765000 6.687804 29.895827 0.139050 -0.542833 -3.592898 0.000001 0.000004 10.400684 2.068886 144.823725 -0.000005 -0.000006 -10.352393 -62.674048 -141.189723 -32.420832 0.000005 0.000003 -12.750302 12.564075 -3.410832 -21.999344 2.460598 -0.518097 -2.735505 24.467918 -29.143751 15.811762 -0.000004 -0.000008 -17.005896 -61.566984 24.428137 36.398464 -0.000004 0.000001 -19.194401 43.790641 8.866950 33.492871 -3.115499 -0.679595 -2.320304 -56.340482 -49.117314 -31.481407 -0.000007 0.000001 -17.680393 70.619710 -2.696853 -116.106864 -0.000004 -0.000004 -16.993788 -53.796284 29.845625 -148.346750
-20.157200 35.828403 40.502197 -65.688484 15.002693 -7.954021 -0.201605 0.334098 6.453205 -22.238078 -3.691987 21.740110 0.000002 0.000001 3.567991 2.464930 -7.015241 -0.638808 -0.000004 0.000003 8.296395 63.431974 -17.773733 2.883025 -0.000001 0.000000 2.173901 5.148675 0.000909 9.032968 1.927598 0.221407 6.048999 -20.907238 0.006725 2.778045 4.959702 0.000004 0.000006 -56.755976 -23.483191 -88.031644 -0.000006 0.000010 -8.654203 39.075464 -20.450085 15.157776 0.000001 0.000007 -13.864101 61.300360 -19.807282 3.889391 -3.155700 -0.764999 6.687796 30.105794 0.143307 -0.404562 -3.592902 -0.000002 -0.000003 10.438034 2.087669 144.770641 -0.000005 -0.000006 -10.352381 -62.821293 -141.210623 -32.505540 0.000005 0.000001 -12.750307 12.558822 -3.309500 -21.966570 2.460592 -0.518098 -2.735500 24.285322 -29.114894 15.787931 -0.000002 0.000003 -17.005898 -61.977014 24.060330 36.384838 -0.000004 0.000002 -19.194399 44.317495 8.934905 33.427782 -3.115499 -0.679593 -2.320296 -56.497399 -49.132778 -31.607530 -0.000004 0.000001 -17.680397 70.782009 -2.908356 -116.179769 0.000005 0.000000 -16.993786 -54.103172 29.836459 -148.978351
-20.165394 35.829403 40.507896 -65.688573 15.019828 -7.970945 -0.201604 0.334097 6.453198 -22.285446 -3.742779 21.716306 -0.000004 0.000004 3.567995 2.499454 -7.011954 -0.635355 0.000005 0.000001 8.296395 63.504039 -17.746590 2.899828 -0.000000 -0.000001 2.173896 5.132436 -0.008104 9.072280 1.927603 0.221403 6.048995 -20.730239 -0.045281 3.048973 4.959702 0.000005 0.000002 -56.994322 -22.810293 -88.444010 0.000005 0.000000 -8.654199 39.479719 -20.272792 15.349756 0.000003 -0.000005 -13.864094 61.361887 -19.768963 3.909859 -3.155703 -0.764999 6.687801 30.122528 0.163166 -0.264162 -3.592898 0.000000 0.000016 10.425638 2.030457 144.673734 0.000001 -0.000005 -10.352388 -62.858176 -141.220062 -32.524630 0.000002 0.000003 -12.750311 12.612862 -3.199097 -21.929497 2.460601 -0.518104 -2.735505 24.155292 -29.066744 15.799916 0.000002 0.000001 -17.005899 -62.529624 23.661905 36.377519 -0.000007 0.000005 -19.194401 44.899543 9.004047 33.445220 -3.115498 -0.679600 -2.320297 -56.515874 -49.167632 -31.613797 -0.000010 0.000002 -17.680393 70.832852 -3.125043 -116.258699 0.000002 -0.000003 -16.993790 -54.518522 29.862403 -149.199800
-20.172598 35.831005 40.512497 -65.679120 15.026433 -7.964684 -0.201595 0.334105 6.453199 -22.341691 -3.769155 21.661072 0.000006 0.000009 3.567994 2.531714 -7.008321 -0.631799 0.000001 0.000006 8.296392 63.589976 -17.711032 2.916495 -0.000003 -0.000004 2.173909 5.124550 -0.022453 9.097513 1.927602 0.221404 6.048993 -20.598758 -0.093924 3.125398 4.959699 0.000001 0.000001 -57.193491 -22.541786 -88.652099 -0.000005 0.000001 -8.654200 39.768336 -20.085696 15.458656 0.000000 -0.000003 -13.864098 61.192143 -19.793161 4.036448 -3.155704 -0.764996 6.687797 30.163925 0.255552 -0.807756 -3.592899 0.000000 0.000005 10.376034 2.007965 145.266062 -0.000005 -0.000003 -10.352388 -62.806171 -141.216456 -32.499416 0.000001 -0.000005 -12.750308 12.727474 -3.090656 -21.898657 2.460601 -0.518095 -2.735508 24.031169 -29.026200 15.796006 -0.000002 0.000003 -17.005896 -62.943465 23.291546 36.308640 -0.000008 -0.000000 -19.194401 45.438687 9.162776 33.553379 -3.115490 -0.679599 -2.320306 -56.675089 -49.216004 -31.718367 -0.000004 -0.000001 -17.680397 71.046043 -3.271073 -116.292440 -0.000002 0.000000 -16.993793 -54.521456 29.828471 -149.301774
-20.178793 35.833305 40.516796 -65.652311 15.027132 -7.944698 -0.201595 0.334104 6.453201 -22.407510 -3.777953 21.589888 0.000004 0.000009 3.567998 2.559121 -7.006128 -0.628767 0.000006 -0.000001 8.296400 63.655751 -17.686759 2.931902 -0.000005 0.000001 2.173908 5.149841 -0.042271 9.088776 1.927604 0.221404 6.049001 -20.516297 -0.129049 3.220256 4.959702 -0.000004 0.000009 -57.285172 -22.260444 -88.841500 -0.000001 0.000006 -8.654199 40.319580 -19.939491 15.690153 -0.000000 -0.000001 -13.864100 60.760775 -19.839350 3.994833 -3.155696 -0.765000 6.687803 30.242729 0.371652 -0.650726 -3.592895 0.000004 0.000004 10.333666 1.825712 145.172256 -0.000007 -0.000002 -10.352393 -62.689648 -141.199613 -32.445120 0.000002 -0.000002 -12.750307 12.948809 -2.896522 -22.046107 2.460601 -0.518093 -2.735500 23.937428 -28.998142 15.801446 -0.000004 0.000006 -17.005896 -63.608992 22.890771 36.321396 -0.000004 0.000010 -19.194401 46.026862 9.179396 34.063181 -3.115495 -0.679594 -2.320301 -56.797090 -49.249243 -31.789387 0.000000 0.000006 -17.680391 71.179075 -3.456649 -116.260762 0.000004 0.000001 -16.993790 -54.622553 29.813557 -149.628012
